   <svg
      width="21"
      height="20"
      viewBox="0 0 21 20"
      fill="none"
      xmlns="http://www.w3.org/2000/svg"
    >
      <path
        d="M10.4998 18.9587C5.55817 18.9587 1.5415 14.942 1.5415 10.0003C1.5415 5.05866 5.55817 1.04199 10.4998 1.04199C15.4415 1.04199 19.4582 5.05866 19.4582 10.0003C19.4582 14.942 15.4415 18.9587 10.4998 18.9587ZM10.4998 2.29199C6.24984 2.29199 2.7915 5.75033 2.7915 10.0003C2.7915 14.2503 6.24984 17.7087 10.4998 17.7087C14.7498 17.7087 18.2082 14.2503 18.2082 10.0003C18.2082 5.75033 14.7498 2.29199 10.4998 2.29199Z"
        fill="#000000"
      />
      <path
        d="M13.8332 10.625H7.1665C6.82484 10.625 6.5415 10.3417 6.5415 10C6.5415 9.65833 6.82484 9.375 7.1665 9.375H13.8332C14.1748 9.375 14.4582 9.65833 14.4582 10C14.4582 10.3417 14.1748 10.625 13.8332 10.625Z"
        fill="#000000"
      />
      <path
        d="M10.5 13.9587C10.1583 13.9587 9.875 13.6753 9.875 13.3337V6.66699C9.875 6.32533 10.1583 6.04199 10.5 6.04199C10.8417 6.04199 11.125 6.32533 11.125 6.66699V13.3337C11.125 13.6753 10.8417 13.9587 10.5 13.9587Z"
        fill="#000000"
      />
    </svg>